<svg id="Layer_1" data-name="Layer 1" xmlns="http://www.w3.org/2000/svg" viewBox="0 0 107.5 22.27"><defs><style>.cls-1{fill:none;stroke:#f0567a;}.cls-1,.cls-2{stroke-miterlimit:10;}.cls-2{fill:#737474;stroke:#231f20;stroke-width:0.25px;}.cls-3{font-size:12px;fill:#231f20;font-family:BernhardModernStd-Roman, Bernhard Modern Std;}.cls-4{letter-spacing:-0.06em;}.cls-5{letter-spacing:-0.11em;}</style></defs><path class="cls-1" d="M44.82,16.74" transform="translate(-1.17 -1.44)"/><path class="cls-2" d="M56.12,20a13.77,13.77,0,0,0-1.22-3.78,14.28,14.28,0,0,0-1-1.67,38.74,38.74,0,0,0-5.07-6.18A31.47,31.47,0,0,0,41,3a15.38,15.38,0,0,0-3.61-1.19,15,15,0,0,0-5-.1,18.91,18.91,0,0,1,4.18,1,20.81,20.81,0,0,1,4.21,2.07,27.66,27.66,0,0,1,4.34,3.29c-.91-.66-1.71-1.17-2.32-1.53a15.08,15.08,0,0,0-2.21-1.16,11.2,11.2,0,0,0-2-.62A27.22,27.22,0,0,1,43,7.42a26.33,26.33,0,0,1,3,2.64,14.69,14.69,0,0,0-3.69-2.48,22.5,22.5,0,0,1-3.18-1.49,11.7,11.7,0,0,1-2.3-1.86,8.25,8.25,0,0,0,.46,2.57c.68,1.91,1.94,3.05,3.54,4.47a23,23,0,0,0,4,2.86,10.15,10.15,0,0,0-2.7-1.1,6.32,6.32,0,0,0-2.72-.25,5.49,5.49,0,0,0-1.84.65,11.27,11.27,0,0,1,8.25,2.13c-.94-.07-1.69-.11-2.21-.13a9.37,9.37,0,0,1-1.72-.17,7,7,0,0,1-1.22-.35,9.13,9.13,0,0,0,1,1.3,10.2,10.2,0,0,0,6,3.05,12.63,12.63,0,0,1-2.91-.3,12.14,12.14,0,0,1-1.89-.59,9.37,9.37,0,0,0,1.56.8,9.74,9.74,0,0,0,2.27.63,1.89,1.89,0,0,0-1.32.45,1.93,1.93,0,0,0-.6,1,1.56,1.56,0,0,1,.81-.35,1.49,1.49,0,0,1,.84.22c.43.24,1.57.41,4.66.08A2.73,2.73,0,0,0,50,22.38a2.51,2.51,0,0,0-.24,1.06,2.56,2.56,0,0,1,.51-.35c1-.55,1.62-.27,2.64-.6a5.59,5.59,0,0,0,1.59-.94A10.25,10.25,0,0,0,56.12,20Z" transform="translate(-1.17 -1.44)"/><text class="cls-3" transform="translate(0 17.52)">BL<tspan class="cls-4" x="14.22" y="0">A</tspan><tspan x="21.78" y="0">CK</tspan></text><text class="cls-3" transform="translate(55.91 17.52)">FE<tspan class="cls-5" x="14.22" y="0">A</tspan><tspan x="21.12" y="0">THER</tspan></text></svg>